<svg width="1246" height="355" viewBox="0 0 1246 355" fill="none" xmlns="http://www.w3.org/2000/svg">
<mask id="mask0_91_272" style="mask-type:luminance" maskUnits="userSpaceOnUse" x="20" y="20" width="316" height="315">
<path d="M335.657 20.2858H20.3429V334.714H335.657V20.2858Z" fill="white"/>
</mask>
<g mask="url(#mask0_91_272)">
<path d="M164.703 27.9409C172.932 23.2039 183.068 23.204 191.296 27.9409L301.239 91.2381C309.467 95.9748 314.535 104.729 314.535 114.204V240.797C314.535 250.271 309.467 259.025 301.239 263.762L191.296 327.06C183.068 331.796 172.932 331.796 164.703 327.06L54.7614 263.762C46.5334 259.025 41.4648 250.271 41.4648 240.797V114.203C41.4648 104.729 46.5334 95.9748 54.7614 91.2381L164.703 27.9409Z" fill="#008080"/>
<path d="M300.829 99.0547L183.752 31.6507C180.118 29.5585 174.226 29.5585 170.592 31.6507L53.5159 99.0547C49.8817 101.147 49.8817 104.539 53.5159 106.631L170.592 174.036C174.226 176.128 180.118 176.128 183.752 174.036L300.829 106.631C304.462 104.539 304.462 101.147 300.829 99.0547Z" fill="white" stroke="#008080" stroke-width="4"/>
<path d="M170.592 174.035L53.516 106.631C49.8818 104.539 46.9358 106.235 46.9358 110.419V245.228C46.9358 249.412 49.8818 254.501 53.516 256.592L170.592 323.997C174.226 326.089 177.172 324.393 177.172 320.208V185.4C177.172 181.216 174.226 176.128 170.592 174.035Z" fill="white" stroke="#008080" stroke-width="4"/>
<path d="M46.9358 227.072C46.9358 224.979 48.4088 224.131 50.2258 225.178L171.956 295.261C173.773 296.307 175.246 298.851 175.246 300.944C175.246 303.036 173.773 303.884 171.956 302.838L50.2258 232.754C48.4088 231.708 46.9358 229.164 46.9358 227.072Z" fill="#008080"/>
<path d="M100.121 162.671C100.121 160.579 101.594 159.73 103.411 160.776L119.862 170.247C121.678 171.293 123.152 173.837 123.152 175.93C123.152 178.022 121.678 178.87 119.862 177.824L103.411 168.353C101.594 167.307 100.121 164.763 100.121 162.671Z" fill="#008080"/>
<path d="M300.829 106.631L183.752 174.036C180.118 176.128 177.172 181.216 177.172 185.4V320.209C177.172 324.393 180.118 326.089 183.752 323.997L300.829 256.593C304.462 254.501 307.409 249.412 307.409 245.228V110.42C307.409 106.235 304.462 104.539 300.829 106.631Z" fill="#008080" stroke="#008080" stroke-width="4"/>
<path d="M221.561 233.588C221.561 230.141 223.988 225.95 226.982 224.226L272.088 198.257C275.082 196.533 277.509 197.931 277.509 201.378C277.509 204.825 275.082 209.017 272.088 210.74L226.982 236.709C223.988 238.433 221.561 237.036 221.561 233.588Z" fill="white"/>
<path d="M249.902 249.154C252.896 247.431 255.323 243.239 255.323 239.792V187.854C255.323 184.407 252.896 183.009 249.902 184.733C246.908 186.457 244.482 190.648 244.482 194.096V246.034C244.482 249.481 246.908 250.878 249.902 249.154Z" fill="white"/>
<path d="M194.948 77.0843C198.458 75.0253 204.149 75.0253 207.659 77.0843C211.169 79.1433 211.169 82.4813 207.659 84.5403L161.052 111.879C157.542 113.938 151.851 113.938 148.342 111.879C144.831 109.82 144.831 106.482 148.342 104.423L194.948 77.0843Z" fill="#008080"/>
<path d="M194.948 111.879C198.458 113.938 204.149 113.938 207.659 111.879C211.169 109.82 211.169 106.482 207.659 104.423L161.052 77.0843C157.542 75.0253 151.851 75.0253 148.342 77.0843C144.831 79.1433 144.831 82.4813 148.342 84.5403L194.948 111.879Z" fill="#008080"/>
<path d="M50.7053 104.627L183.669 180.392" stroke="#008080" stroke-width="4"/>
</g>
<path d="M429.566 107.192H467.178L506.903 203.837H508.592L548.316 107.192H585.93V251.036H556.347V157.411H555.152L517.822 250.333H497.676L460.346 157.06H459.148V251.036H429.566V107.192ZM659.8 253.143C648.668 253.143 639.091 250.895 631.061 246.4C623.076 241.858 616.928 235.443 612.605 227.155C608.287 218.821 606.126 208.964 606.126 197.586C606.126 186.489 608.287 176.749 612.605 168.367C616.928 159.986 623.01 153.454 630.847 148.771C638.74 144.089 647.986 141.748 658.6 141.748C665.735 141.748 672.382 142.895 678.531 145.189C684.73 147.437 690.131 150.832 694.734 155.374C699.382 159.916 702.998 165.628 705.582 172.511C708.16 179.348 709.452 187.355 709.452 196.532V204.75H618.103V186.208H681.211C681.211 181.899 680.27 178.084 678.394 174.759C676.512 171.435 673.908 168.835 670.572 166.963C667.286 165.043 663.462 164.083 659.093 164.083C654.537 164.083 650.498 165.136 646.979 167.244C643.506 169.304 640.78 172.09 638.806 175.602C636.838 179.067 635.826 182.93 635.78 187.191V204.82C635.78 210.158 636.767 214.77 638.74 218.657C640.759 222.543 643.597 225.54 647.259 227.647C650.926 229.754 655.269 230.808 660.288 230.808C663.625 230.808 666.676 230.339 669.448 229.403C672.22 228.466 674.59 227.062 676.563 225.189C678.531 223.316 680.036 221.022 681.069 218.306L708.821 220.131C707.413 226.781 704.524 232.587 700.155 237.55C695.838 242.467 690.248 246.307 683.393 249.069C676.583 251.785 668.721 253.143 659.8 253.143ZM768.899 252.791C760.686 252.791 753.24 250.685 746.573 246.47C739.951 242.209 734.692 235.958 730.797 227.717C726.947 219.43 725.019 209.268 725.019 197.234C725.019 184.873 727.018 174.595 731.005 166.401C734.998 158.16 740.302 152.002 746.924 147.929C753.591 143.808 760.894 141.748 768.828 141.748C774.89 141.748 779.935 142.778 783.973 144.839C788.057 146.852 791.347 149.38 793.834 152.424C796.372 155.421 798.294 158.371 799.612 161.273H800.527V107.192H830.462V251.036H800.878V233.757H799.612C798.203 236.754 796.204 239.727 793.621 242.678C791.088 245.581 787.777 247.992 783.693 249.912C779.655 251.832 774.722 252.791 768.899 252.791ZM778.409 228.982C783.246 228.982 787.33 227.671 790.666 225.048C794.048 222.379 796.626 218.657 798.411 213.881C800.242 209.105 801.158 203.509 801.158 197.094C801.158 190.679 800.268 185.107 798.483 180.378C796.698 175.648 794.114 171.997 790.737 169.421C787.355 166.845 783.246 165.558 778.409 165.558C773.481 165.558 769.321 166.893 765.944 169.562C762.562 172.23 760.004 175.929 758.265 180.659C756.525 185.388 755.661 190.867 755.661 197.094C755.661 203.369 756.525 208.918 758.265 213.74C760.05 218.516 762.608 222.262 765.944 224.978C769.321 227.647 773.481 228.982 778.409 228.982Z" fill="#212121"/>
<path d="M955.285 107.192H972.755V202.432C972.755 212.265 970.431 221.045 965.782 228.771C961.18 236.45 954.675 242.514 946.273 246.962C937.867 251.363 928.006 253.564 916.69 253.564C905.374 253.564 895.513 251.363 887.106 246.962C878.7 242.514 872.175 236.45 867.526 228.771C862.924 221.045 860.625 212.265 860.625 202.432V107.192H878.089V201.027C878.089 208.051 879.64 214.302 882.738 219.78C885.84 225.212 890.254 229.496 895.981 232.633C901.758 235.724 908.66 237.269 916.69 237.269C924.72 237.269 931.622 235.724 937.399 232.633C943.171 229.496 947.586 225.212 950.637 219.78C953.739 214.302 955.285 208.051 955.285 201.027V107.192ZM1022 186.137V251.036H1005.38V143.153H1021.44V160.009H1022.85C1025.39 154.531 1029.24 150.129 1034.4 146.805C1039.57 143.434 1046.23 141.748 1054.41 141.748C1061.73 141.748 1068.14 143.246 1073.64 146.243C1079.13 149.193 1083.4 153.688 1086.45 159.728C1089.51 165.722 1091.03 173.307 1091.03 182.485V251.036H1074.41V183.609C1074.41 175.134 1072.2 168.531 1067.79 163.802C1063.37 159.026 1057.31 156.638 1049.62 156.638C1044.31 156.638 1039.57 157.785 1035.39 160.08C1031.26 162.374 1027.99 165.722 1025.6 170.124C1023.21 174.525 1022 179.863 1022 186.137ZM1121.41 251.036V143.153H1138.03V251.036H1121.41ZM1129.86 125.172C1126.62 125.172 1123.83 124.071 1121.48 121.871C1119.18 119.67 1118.02 117.025 1118.02 113.934C1118.02 110.844 1119.18 108.198 1121.48 105.997C1123.83 103.797 1126.62 102.696 1129.86 102.696C1133.1 102.696 1135.87 103.797 1138.17 105.997C1140.52 108.198 1141.69 110.844 1141.69 113.934C1141.69 117.025 1140.52 119.67 1138.17 121.871C1135.87 124.071 1133.1 125.172 1129.86 125.172ZM1215.53 143.153V157.2H1159.46V143.153H1215.53ZM1175.8 117.306H1192.42V220.131C1192.42 224.814 1193.1 228.326 1194.47 230.667C1195.88 232.962 1197.66 234.507 1199.82 235.303C1202.02 236.052 1204.35 236.426 1206.79 236.426C1208.62 236.426 1210.13 236.333 1211.3 236.145C1212.47 235.912 1213.41 235.724 1214.12 235.584L1217.49 250.474C1216.37 250.895 1214.79 251.317 1212.78 251.738C1210.76 252.206 1208.2 252.44 1205.1 252.44C1200.41 252.44 1195.8 251.434 1191.29 249.42C1186.83 247.407 1183.13 244.34 1180.17 240.219C1177.26 236.099 1175.8 230.901 1175.8 224.627V117.306Z" fill="#4DB6AC"/>
</svg>
