<svg width="191" height="54" viewBox="0 0 191 54" fill="none" xmlns="http://www.w3.org/2000/svg">
<mask id="mask0_5_627" style="mask-type:luminance" maskUnits="userSpaceOnUse" x="3" y="3" width="49" height="48">
<path d="M51.4531 3.08572H3.11841V50.9143H51.4531V3.08572Z" fill="white"/>
</mask>
<g mask="url(#mask0_5_627)">
<path d="M25.2475 4.25016C26.5088 3.5296 28.0627 3.52961 29.3239 4.25016L46.1771 13.8785C47.4384 14.599 48.2153 15.9306 48.2153 17.3718V36.6283C48.2153 38.0694 47.4384 39.401 46.1771 40.1215L29.3239 49.7499C28.0627 50.4704 26.5088 50.4704 25.2475 49.7499L8.39444 40.1215C7.13317 39.401 6.3562 38.0694 6.3562 36.6283V17.3717C6.3562 15.9306 7.13317 14.599 8.39444 13.8785L25.2475 4.25016Z" fill="#008080"/>
<path d="M46.1141 15.0675L28.1674 4.81447C27.6104 4.49622 26.7072 4.49622 26.1501 4.81447L8.20346 15.0675C7.64637 15.3858 7.64637 15.9018 8.20346 16.22L26.1501 26.473C26.7072 26.7913 27.6104 26.7913 28.1674 26.473L46.1141 16.22C46.6712 15.9018 46.6712 15.3858 46.1141 15.0675Z" fill="white" stroke="#008080" stroke-width="4"/>
<path d="M26.1502 26.473L8.20351 16.22C7.64642 15.9017 7.19482 16.1597 7.19482 16.7962V37.3023C7.19482 37.9388 7.64642 38.7128 8.20351 39.031L26.1502 49.284C26.7072 49.6023 27.1588 49.3443 27.1588 48.7078V28.2017C27.1588 27.5652 26.7072 26.7913 26.1502 26.473Z" fill="white" stroke="#008080" stroke-width="4"/>
<path d="M7.19482 34.5405C7.19482 34.2222 7.42062 34.0932 7.69916 34.2524L26.3593 44.913C26.6378 45.072 26.8636 45.4591 26.8636 45.7773C26.8636 46.0956 26.6378 46.2245 26.3593 46.0655L7.69916 35.4049C7.42062 35.2457 7.19482 34.8588 7.19482 34.5405Z" fill="#008080"/>
<path d="M15.3477 24.7443C15.3477 24.4261 15.5734 24.297 15.852 24.4561L18.3736 25.8968C18.6521 26.0558 18.878 26.4429 18.878 26.7612C18.878 27.0794 18.6521 27.2084 18.3736 27.0493L15.852 25.6087C15.5734 25.4495 15.3477 25.0626 15.3477 24.7443Z" fill="#008080"/>
<path d="M46.1143 16.22L28.1676 26.473C27.6106 26.7912 27.1589 27.5652 27.1589 28.2017V48.7078C27.1589 49.3443 27.6106 49.6023 28.1676 49.2841L46.1143 39.031C46.6713 38.7128 47.123 37.9388 47.123 37.3023V16.7962C47.123 16.1597 46.6713 15.9018 46.1143 16.22Z" fill="#008080" stroke="#008080" stroke-width="4"/>
<path d="M33.9634 35.5318C33.9634 35.0074 34.3354 34.3698 34.7943 34.1076L41.7086 30.1574C42.1676 29.8952 42.5396 30.1078 42.5396 30.6321C42.5396 31.1565 42.1676 31.7941 41.7086 32.0563L34.7943 36.0065C34.3354 36.2687 33.9634 36.0561 33.9634 35.5318Z" fill="white"/>
<path d="M38.3077 37.8995C38.7666 37.6374 39.1387 36.9997 39.1387 36.4754V28.575C39.1387 28.0506 38.7666 27.838 38.3077 28.1002C37.8487 28.3624 37.4768 29 37.4768 29.5244V37.4249C37.4768 37.9492 37.8487 38.1617 38.3077 37.8995Z" fill="white"/>
<path d="M29.8838 11.7255C30.4218 11.4123 31.2942 11.4123 31.8323 11.7255C32.3703 12.0387 32.3703 12.5464 31.8323 12.8596L24.6879 17.0182C24.1499 17.3314 23.2775 17.3314 22.7395 17.0182C22.2014 16.705 22.2014 16.1972 22.7395 15.884L29.8838 11.7255Z" fill="#008080"/>
<path d="M29.8838 17.0182C30.4218 17.3314 31.2942 17.3314 31.8323 17.0182C32.3703 16.705 32.3703 16.1972 31.8323 15.884L24.6879 11.7255C24.1499 11.4123 23.2775 11.4123 22.7395 11.7255C22.2014 12.0387 22.2014 12.5464 22.7395 12.8596L29.8838 17.0182Z" fill="#008080"/>
<path d="M7.77271 15.915L28.1548 27.4399" stroke="#008080" stroke-width="4"/>
</g>
<path d="M65.8484 16.3052H71.6139L77.7034 31.0062H77.9623L84.0517 16.3052H89.8176V38.1857H85.2827V23.9441H85.0995L79.3773 38.0789H76.289L70.5666 23.8908H70.3831V38.1857H65.8484V16.3052ZM101.141 38.5062C99.4346 38.5062 97.9666 38.1643 96.7357 37.4805C95.5117 36.7897 94.5692 35.8139 93.9065 34.5532C93.2446 33.2854 92.9133 31.7861 92.9133 30.0553C92.9133 28.3673 93.2446 26.8857 93.9065 25.6108C94.5692 24.3359 95.5016 23.3423 96.7029 22.63C97.9128 21.9177 99.3301 21.5617 100.957 21.5617C102.051 21.5617 103.07 21.7362 104.012 22.0852C104.963 22.427 105.791 22.9434 106.496 23.6343C107.209 24.3252 107.763 25.1942 108.159 26.2411C108.554 27.281 108.752 28.499 108.752 29.895V31.145H94.7493V28.3245H104.423C104.423 27.6692 104.279 27.0888 103.991 26.583C103.703 26.0774 103.304 25.682 102.792 25.3971C102.289 25.1051 101.702 24.9591 101.033 24.9591C100.334 24.9591 99.7153 25.1193 99.1758 25.4399C98.6433 25.7533 98.2255 26.177 97.923 26.7113C97.6213 27.2383 97.4661 27.826 97.4591 28.4741V31.1558C97.4591 31.9677 97.6104 32.6693 97.9128 33.2604C98.2223 33.8516 98.6574 34.3075 99.2187 34.628C99.7807 34.9485 100.447 35.1088 101.216 35.1088C101.727 35.1088 102.195 35.0375 102.62 34.8951C103.045 34.7526 103.408 34.5389 103.711 34.2541C104.012 33.9692 104.243 33.6202 104.401 33.2071L108.656 33.4848C108.44 34.4962 107.997 35.3794 107.327 36.1344C106.665 36.8823 105.809 37.4664 104.758 37.8866C103.714 38.2997 102.509 38.5062 101.141 38.5062ZM117.865 38.4528C116.606 38.4528 115.465 38.1323 114.443 37.4913C113.428 36.8431 112.621 35.8923 112.024 34.6387C111.434 33.378 111.139 31.8324 111.139 30.0019C111.139 28.1215 111.445 26.5581 112.056 25.3117C112.668 24.0581 113.481 23.1215 114.496 22.5018C115.518 21.875 116.638 21.5617 117.854 21.5617C118.783 21.5617 119.557 21.7183 120.176 22.0318C120.802 22.338 121.306 22.7227 121.687 23.1856C122.076 23.6414 122.371 24.0902 122.573 24.5317H122.713V16.3052H127.302V38.1857H122.767V35.5575H122.573C122.357 36.0133 122.051 36.4656 121.655 36.9143C121.266 37.356 120.759 37.7228 120.133 38.0148C119.514 38.3068 118.758 38.4528 117.865 38.4528ZM119.323 34.831C120.064 34.831 120.69 34.6316 121.202 34.2327C121.72 33.8267 122.115 33.2604 122.389 32.534C122.67 31.8075 122.81 30.9563 122.81 29.9805C122.81 29.0047 122.673 28.1571 122.4 27.4378C122.126 26.7184 121.73 26.1628 121.213 25.7711C120.694 25.3793 120.064 25.1834 119.323 25.1834C118.567 25.1834 117.93 25.3865 117.412 25.7925C116.894 26.1984 116.501 26.7611 116.235 27.4805C115.968 28.1999 115.836 29.0333 115.836 29.9805C115.836 30.935 115.968 31.779 116.235 32.5126C116.508 33.2391 116.901 33.8089 117.412 34.222C117.93 34.628 118.567 34.831 119.323 34.831Z" fill="#212121"/>
<path d="M146.436 16.3052H149.114V30.7925C149.114 32.2882 148.758 33.6237 148.045 34.7989C147.34 35.967 146.343 36.8894 145.055 37.566C143.766 38.2356 142.255 38.5703 140.52 38.5703C138.785 38.5703 137.274 38.2356 135.985 37.566C134.696 36.8894 133.696 35.967 132.984 34.7989C132.278 33.6237 131.926 32.2882 131.926 30.7925V16.3052H134.603V30.5788C134.603 31.6472 134.841 32.598 135.315 33.4314C135.791 34.2576 136.468 34.9093 137.345 35.3865C138.231 35.8566 139.289 36.0917 140.52 36.0917C141.751 36.0917 142.809 35.8566 143.695 35.3865C144.579 34.9093 145.256 34.2576 145.724 33.4314C146.199 32.598 146.436 31.6472 146.436 30.5788V16.3052ZM156.664 28.3138V38.1857H154.116V21.7753H156.577V24.3394H156.793C157.182 23.5061 157.772 22.8366 158.564 22.3309C159.356 21.8181 160.378 21.5617 161.631 21.5617C162.753 21.5617 163.736 21.7895 164.578 22.2454C165.42 22.6941 166.075 23.3779 166.543 24.2967C167.011 25.2084 167.245 26.3623 167.245 27.7583V38.1857H164.697V27.9292C164.697 26.6401 164.358 25.6357 163.682 24.9164C163.005 24.1898 162.076 23.8267 160.896 23.8267C160.083 23.8267 159.356 24.0012 158.716 24.3501C158.082 24.6991 157.581 25.2084 157.215 25.878C156.848 26.5475 156.664 27.3594 156.664 28.3138ZM171.901 38.1857V21.7753H174.449V38.1857H171.901ZM173.197 19.0402C172.7 19.0402 172.272 18.8728 171.912 18.5381C171.559 18.2033 171.382 17.8009 171.382 17.3308C171.382 16.8607 171.559 16.4584 171.912 16.1236C172.272 15.7888 172.7 15.6214 173.197 15.6214C173.693 15.6214 174.118 15.7888 174.47 16.1236C174.831 16.4584 175.011 16.8607 175.011 17.3308C175.011 17.8009 174.831 18.2033 174.47 18.5381C174.118 18.8728 173.693 19.0402 173.197 19.0402ZM186.329 21.7753V23.9121H177.734V21.7753H186.329ZM180.239 17.8437H182.787V33.4848C182.787 34.197 182.892 34.7313 183.101 35.0874C183.316 35.4364 183.589 35.6715 183.921 35.7925C184.259 35.9065 184.615 35.9635 184.989 35.9635C185.27 35.9635 185.501 35.9493 185.681 35.9207C185.86 35.8852 186.004 35.8566 186.113 35.8352L186.631 38.1002C186.458 38.1643 186.217 38.2285 185.907 38.2926C185.598 38.3638 185.205 38.3994 184.731 38.3994C184.011 38.3994 183.306 38.2463 182.614 37.94C181.93 37.6337 181.362 37.1672 180.908 36.5404C180.462 35.9136 180.239 35.123 180.239 34.1686V17.8437Z" fill="white"/>
</svg>
