<svg width="352" height="101" viewBox="0 0 352 101" fill="none" xmlns="http://www.w3.org/2000/svg">
<mask id="mask0_13_3000" style="mask-type:luminance" maskUnits="userSpaceOnUse" x="6" y="6" width="90" height="89">
<path d="M95.0552 6.11426H6.23071V94.6857H95.0552V6.11426Z" fill="white"/>
</mask>
<g mask="url(#mask0_13_3000)">
<path d="M46.8974 8.27067C49.2153 6.9363 52.0708 6.93631 54.3886 8.27067L85.3597 26.1009C87.6774 27.4351 89.1052 29.9011 89.1052 32.57V68.2301C89.1052 70.8989 87.6774 73.3649 85.3597 74.6991L54.3886 92.5294C52.0708 93.8637 49.2153 93.8637 46.8974 92.5294L15.9266 74.6991C13.6087 73.3649 12.1809 70.8989 12.1809 68.2301V32.5699C12.1809 29.9011 13.6087 27.4351 15.9266 26.1009L46.8974 8.27067Z" fill="#008080"/>
<path d="M85.244 28.3027L52.2633 9.31568C51.2397 8.72632 49.58 8.72632 48.5562 9.31568L15.5757 28.3027C14.5519 28.8921 14.5519 29.8477 15.5757 30.437L48.5562 49.4241C49.58 50.0134 51.2397 50.0134 52.2633 49.4241L85.244 30.437C86.2676 29.8477 86.2676 28.8921 85.244 28.3027Z" fill="white" stroke="#008080" stroke-width="4"/>
<path d="M48.5564 49.4239L15.5758 30.4369C14.5521 29.8475 13.7222 30.3252 13.7222 31.5039V69.4782C13.7222 70.6569 14.5521 72.0902 15.5758 72.6795L48.5564 91.6667C49.58 92.2561 50.4099 91.7782 50.4099 90.5995V52.6254C50.4099 51.4467 49.58 50.0134 48.5564 49.4239Z" fill="white" stroke="#008080" stroke-width="4"/>
<path d="M13.7222 64.3638C13.7222 63.7744 14.1371 63.5355 14.649 63.8302L48.9406 83.5721C49.4525 83.8667 49.8674 84.5834 49.8674 85.1728C49.8674 85.7621 49.4525 86.0009 48.9406 85.7064L14.649 65.9645C14.1371 65.6698 13.7222 64.9532 13.7222 64.3638Z" fill="#008080"/>
<path d="M28.7046 46.2227C28.7046 45.6334 29.1195 45.3944 29.6314 45.6891L34.2654 48.3569C34.7772 48.6515 35.1922 49.3682 35.1922 49.9577C35.1922 50.5469 34.7772 50.7858 34.2654 50.4912L29.6314 47.8234C29.1195 47.5287 28.7046 46.8121 28.7046 46.2227Z" fill="#008080"/>
<path d="M85.2442 30.437L52.2635 49.4241C51.2398 50.0134 50.4099 51.4467 50.4099 52.6254V90.5997C50.4099 91.7784 51.2398 92.2561 52.2635 91.6668L85.2442 72.6797C86.2678 72.0904 87.0977 70.657 87.0977 69.4783V31.5041C87.0977 30.3254 86.2678 29.8477 85.2442 30.437Z" fill="#008080" stroke="#008080" stroke-width="4"/>
<path d="M62.9143 66.1996C62.9143 65.2286 63.598 64.0479 64.4414 63.5623L77.1477 56.247C77.9911 55.7615 78.6748 56.1552 78.6748 57.1262C78.6748 58.0972 77.9911 59.278 77.1477 59.7635L64.4414 67.0787C63.598 67.5643 62.9143 67.1706 62.9143 66.1996Z" fill="white"/>
<path d="M70.898 70.5843C71.7414 70.0989 72.4251 68.918 72.4251 67.947V53.3167C72.4251 52.3456 71.7414 51.9519 70.898 52.4375C70.0546 52.923 69.3711 54.1037 69.3711 55.0749V69.7053C69.3711 70.6763 70.0546 71.0699 70.898 70.5843Z" fill="white"/>
<path d="M55.4174 22.1138C56.406 21.5338 58.0092 21.5338 58.998 22.1138C59.9868 22.6938 59.9868 23.6341 58.998 24.2141L45.8689 31.9151C44.8801 32.4951 43.2769 32.4951 42.2882 31.9151C41.2994 31.3351 41.2994 30.3948 42.2882 29.8148L55.4174 22.1138Z" fill="#008080"/>
<path d="M55.4174 31.9151C56.406 32.4951 58.0092 32.4951 58.998 31.9151C59.9868 31.3351 59.9868 30.3948 58.998 29.8148L45.8689 22.1138C44.8801 21.5338 43.2769 21.5338 42.2882 22.1138C41.2994 22.6938 41.2994 23.6341 42.2882 24.2141L55.4174 31.9151Z" fill="#008080"/>
<path d="M14.7839 29.8723L52.24 51.2147" stroke="#008080" stroke-width="4"/>
</g>
<path d="M121.509 30.5948H132.105L143.295 57.8189H143.771L154.961 30.5948H165.557V71.1143H157.224V44.741H156.887L146.371 70.9164H140.696L130.18 44.6421H129.843V71.1143H121.509V30.5948ZM186.367 71.7079C183.231 71.7079 180.533 71.0747 178.271 69.8084C176.021 68.529 174.289 66.722 173.072 64.3874C171.855 62.0396 171.246 59.2631 171.246 56.058C171.246 52.932 171.855 50.1884 173.072 47.8274C174.289 45.4664 176.003 43.6264 178.211 42.3074C180.434 40.9884 183.039 40.329 186.029 40.329C188.039 40.329 189.911 40.6521 191.643 41.2984C193.389 41.9316 194.911 42.8878 196.208 44.1673C197.517 45.4467 198.536 47.0559 199.263 48.9947C199.99 50.9204 200.354 53.176 200.354 55.7611V58.076H174.62V52.8528H192.398C192.398 51.6393 192.133 50.5644 191.604 49.6278C191.074 48.6914 190.341 47.9593 189.401 47.4317C188.475 46.891 187.398 46.6206 186.167 46.6206C184.884 46.6206 183.746 46.9173 182.755 47.5109C181.776 48.0913 181.009 48.876 180.453 49.8653C179.898 50.8413 179.613 51.9296 179.6 53.1299V58.0959C179.6 59.5994 179.878 60.8987 180.434 61.9934C181.003 63.0881 181.802 63.9324 182.834 64.5259C183.867 65.1194 185.09 65.4163 186.504 65.4163C187.444 65.4163 188.304 65.2843 189.084 65.0206C189.865 64.7567 190.533 64.361 191.089 63.8334C191.643 63.3059 192.067 62.6596 192.358 61.8946L200.176 62.4089C199.779 64.2819 198.965 65.9174 197.735 67.3156C196.518 68.7006 194.944 69.7821 193.013 70.5603C191.094 71.3253 188.879 71.7079 186.367 71.7079ZM217.1 71.6089C214.786 71.6089 212.689 71.0154 210.811 69.8283C208.945 68.628 207.464 66.8671 206.366 64.5457C205.282 62.2111 204.739 59.3489 204.739 55.959C204.739 52.4769 205.302 49.5817 206.425 47.2734C207.55 44.952 209.044 43.2176 210.909 42.07C212.788 40.9093 214.845 40.329 217.08 40.329C218.788 40.329 220.209 40.6191 221.346 41.1996C222.497 41.7667 223.424 42.479 224.124 43.3363C224.839 44.1804 225.381 45.0114 225.752 45.8291H226.01V30.5948H234.442V71.1143H226.108V66.2471H225.752C225.355 67.0913 224.792 67.9288 224.064 68.7598C223.351 69.5777 222.418 70.257 221.267 70.7977C220.13 71.3386 218.74 71.6089 217.1 71.6089ZM219.779 64.9018C221.141 64.9018 222.292 64.5326 223.232 63.7939C224.184 63.042 224.911 61.9934 225.414 60.6481C225.929 59.3027 226.187 57.7266 226.187 55.9194C226.187 54.1124 225.937 52.5429 225.434 51.2107C224.931 49.8784 224.203 48.8497 223.252 48.1243C222.299 47.3987 221.141 47.036 219.779 47.036C218.391 47.036 217.219 47.412 216.268 48.1639C215.315 48.9156 214.594 49.9576 214.104 51.2898C213.614 52.622 213.371 54.1653 213.371 55.9194C213.371 57.687 213.614 59.25 214.104 60.6086C214.607 61.9539 215.328 63.009 216.268 63.7741C217.219 64.5259 218.391 64.9018 219.779 64.9018Z" fill="#212121"/>
<path d="M269.605 30.5949H274.526V57.4232C274.526 60.193 273.872 62.6662 272.562 64.8425C271.266 67.0056 269.433 68.7138 267.067 69.9668C264.698 71.2066 261.92 71.8266 258.733 71.8266C255.545 71.8266 252.767 71.2066 250.399 69.9668C248.031 68.7138 246.193 67.0056 244.883 64.8425C243.587 62.6662 242.939 60.193 242.939 57.4232V30.5949H247.859V57.0275C247.859 59.0059 248.296 60.7668 249.168 62.31C250.042 63.84 251.286 65.0469 252.899 65.9306C254.527 66.8012 256.471 67.2365 258.733 67.2365C260.995 67.2365 262.939 66.8012 264.567 65.9306C266.193 65.0469 267.436 63.84 268.296 62.31C269.17 60.7668 269.605 59.0059 269.605 57.0275V30.5949ZM288.4 52.833V71.1143H283.718V40.7248H288.241V45.473H288.638C289.353 43.9299 290.437 42.69 291.893 41.7535C293.347 40.8039 295.225 40.329 297.528 40.329C299.591 40.329 301.397 40.751 302.944 41.5952C304.492 42.4262 305.695 43.6925 306.555 45.3939C307.416 47.0823 307.846 49.219 307.846 51.8043V71.1143H303.162V52.1208C303.162 49.7335 302.54 47.8736 301.297 46.5415C300.053 45.196 298.347 44.5235 296.178 44.5235C294.684 44.5235 293.347 44.8466 292.171 45.4929C291.006 46.1392 290.086 47.0823 289.413 48.3222C288.738 49.562 288.4 51.0656 288.4 52.833ZM316.401 71.1143V40.7248H321.085V71.1143H316.401ZM318.782 35.6598C317.87 35.6598 317.083 35.3498 316.421 34.7299C315.774 34.1099 315.449 33.3648 315.449 32.4942C315.449 31.6236 315.774 30.8785 316.421 30.2585C317.083 29.6386 317.87 29.3286 318.782 29.3286C319.695 29.3286 320.476 29.6386 321.123 30.2585C321.785 30.8785 322.116 31.6236 322.116 32.4942C322.116 33.3648 321.785 34.1099 321.123 34.7299C320.476 35.3498 319.695 35.6598 318.782 35.6598ZM342.915 40.7248V44.6818H327.12V40.7248H342.915ZM331.724 33.4439H336.407V62.4089C336.407 63.7279 336.599 64.7172 336.983 65.3768C337.38 66.023 337.881 66.4583 338.49 66.6825C339.112 66.8936 339.766 66.999 340.454 66.999C340.97 66.999 341.394 66.9728 341.725 66.9199C342.054 66.854 342.32 66.8012 342.519 66.7616L343.47 70.956C343.153 71.0748 342.709 71.1935 342.14 71.3122C341.572 71.444 340.851 71.51 339.979 71.51C338.656 71.51 337.36 71.2265 336.089 70.6593C334.832 70.092 333.788 69.2282 332.954 68.0675C332.135 66.9068 331.724 65.4426 331.724 63.6752V33.4439Z" fill="#4DB6AC"/>
</svg>
