<svg width="15" height="20" viewBox="0 0 15 20" fill="none" xmlns="http://www.w3.org/2000/svg">
<path d="M7.5 15.2381C7.99728 15.2381 8.47419 15.0374 8.82582 14.6802C9.17746 14.323 9.375 13.8385 9.375 13.3333C9.375 12.8282 9.17746 12.3437 8.82582 11.9865C8.47419 11.6293 7.99728 11.4286 7.5 11.4286C7.00272 11.4286 6.52581 11.6293 6.17418 11.9865C5.82254 12.3437 5.625 12.8282 5.625 13.3333C5.625 13.8385 5.82254 14.323 6.17418 14.6802C6.52581 15.0374 7.00272 15.2381 7.5 15.2381ZM13.125 6.66667C13.6223 6.66667 14.0992 6.86735 14.4508 7.22456C14.8025 7.58177 15 8.06625 15 8.57143V18.0952C15 18.6004 14.8025 19.0849 14.4508 19.4421C14.0992 19.7993 13.6223 20 13.125 20H1.875C1.37772 20 0.900805 19.7993 0.549175 19.4421C0.197544 19.0849 0 18.6004 0 18.0952V8.57143C0 8.06625 0.197544 7.58177 0.549175 7.22456C0.900805 6.86735 1.37772 6.66667 1.875 6.66667H2.8125V4.7619C2.8125 3.49897 3.30636 2.28776 4.18544 1.39473C5.06451 0.501699 6.2568 0 7.5 0C8.11557 0 8.72511 0.12317 9.29383 0.362478C9.86254 0.601787 10.3793 0.952546 10.8146 1.39473C11.2498 1.83691 11.5951 2.36186 11.8307 2.9396C12.0663 3.51734 12.1875 4.13656 12.1875 4.7619V6.66667H13.125ZM7.5 1.90476C6.75408 1.90476 6.03871 2.20578 5.51126 2.7416C4.98382 3.27742 4.6875 4.00414 4.6875 4.7619V6.66667H10.3125V4.7619C10.3125 4.00414 10.0162 3.27742 9.48874 2.7416C8.96129 2.20578 8.24592 1.90476 7.5 1.90476Z" fill="black"/>
</svg>
