<svg width="22" height="26" viewBox="0 0 22 26" fill="none" xmlns="http://www.w3.org/2000/svg">
<g clip-path="url(#clip0_5_791)">
<path d="M4.125 25.5C3.36875 25.5 2.72159 25.2282 2.1835 24.6847C1.64542 24.1412 1.37592 23.487 1.375 22.7222V4.66667C0.985421 4.66667 0.659088 4.53333 0.396005 4.26667C0.132922 4 0.000921408 3.67037 4.74137e-06 3.27778C-0.000911925 2.88518 0.131088 2.55556 0.396005 2.28889C0.660921 2.02222 0.987254 1.88889 1.375 1.88889H6.875C6.875 1.49537 7.007 1.16574 7.271 0.9C7.535 0.634259 7.86133 0.500926 8.25 0.5H13.75C14.1396 0.5 14.4664 0.633333 14.7304 0.9C14.9944 1.16667 15.1259 1.4963 15.125 1.88889H20.625C21.0146 1.88889 21.3414 2.02222 21.6054 2.28889C21.8694 2.55556 22.0009 2.88518 22 3.27778C21.9991 3.67037 21.8671 4.00046 21.604 4.26805C21.3409 4.53565 21.0146 4.66852 20.625 4.66667V22.7222C20.625 23.4861 20.356 24.1403 19.8179 24.6847C19.2798 25.2292 18.6322 25.5009 17.875 25.5H4.125ZM17.875 4.66667H4.125V22.7222H17.875V4.66667ZM8.25 19.9444C8.63958 19.9444 8.96638 19.8111 9.23038 19.5444C9.49438 19.2778 9.62592 18.9481 9.625 18.5556V8.83333C9.625 8.43981 9.493 8.11018 9.229 7.84444C8.965 7.5787 8.63867 7.44537 8.25 7.44444C7.86133 7.44352 7.535 7.57685 7.271 7.84444C7.007 8.11204 6.875 8.44167 6.875 8.83333V18.5556C6.875 18.9491 7.007 19.2792 7.271 19.5458C7.535 19.8125 7.86133 19.9454 8.25 19.9444ZM13.75 19.9444C14.1396 19.9444 14.4664 19.8111 14.7304 19.5444C14.9944 19.2778 15.1259 18.9481 15.125 18.5556V8.83333C15.125 8.43981 14.993 8.11018 14.729 7.84444C14.465 7.5787 14.1387 7.44537 13.75 7.44444C13.3613 7.44352 13.035 7.57685 12.771 7.84444C12.507 8.11204 12.375 8.44167 12.375 8.83333V18.5556C12.375 18.9491 12.507 19.2792 12.771 19.5458C13.035 19.8125 13.3613 19.9454 13.75 19.9444Z" fill="black"/>
</g>
<defs>
<clipPath id="clip0_5_791">
<rect width="22" height="25" fill="white" transform="translate(0 0.5)"/>
</clipPath>
</defs>
</svg>
