<svg width="15" height="20" viewBox="0 0 15 20" fill="none" xmlns="http://www.w3.org/2000/svg">
<path d="M1.25 0C0.918479 0 0.600537 0.131696 0.366116 0.366117C0.131696 0.600537 0 0.918479 0 1.25V18.75C0 19.0815 0.131696 19.3995 0.366116 19.6339C0.600537 19.8683 0.918479 20 1.25 20H5V15.625C5 15.4592 5.06585 15.3003 5.18306 15.1831C5.30027 15.0658 5.45924 15 5.625 15H9.375C9.54076 15 9.69973 15.0658 9.81694 15.1831C9.93415 15.3003 10 15.4592 10 15.625V20H13.75C14.0815 20 14.3995 19.8683 14.6339 19.6339C14.8683 19.3995 15 19.0815 15 18.75V1.25C15 0.918479 14.8683 0.600537 14.6339 0.366117C14.3995 0.131696 14.0815 0 13.75 0L1.25 0ZM2.5 3.125C2.5 2.95924 2.56585 2.80027 2.68306 2.68306C2.80027 2.56585 2.95924 2.5 3.125 2.5H4.375C4.54076 2.5 4.69973 2.56585 4.81694 2.68306C4.93415 2.80027 5 2.95924 5 3.125V4.375C5 4.54076 4.93415 4.69973 4.81694 4.81694C4.69973 4.93415 4.54076 5 4.375 5H3.125C2.95924 5 2.80027 4.93415 2.68306 4.81694C2.56585 4.69973 2.5 4.54076 2.5 4.375V3.125ZM6.25 3.125C6.25 2.95924 6.31585 2.80027 6.43306 2.68306C6.55027 2.56585 6.70924 2.5 6.875 2.5H8.125C8.29076 2.5 8.44973 2.56585 8.56694 2.68306C8.68415 2.80027 8.75 2.95924 8.75 3.125V4.375C8.75 4.54076 8.68415 4.69973 8.56694 4.81694C8.44973 4.93415 8.29076 5 8.125 5H6.875C6.70924 5 6.55027 4.93415 6.43306 4.81694C6.31585 4.69973 6.25 4.54076 6.25 4.375V3.125ZM10.625 2.5H11.875C12.0408 2.5 12.1997 2.56585 12.3169 2.68306C12.4342 2.80027 12.5 2.95924 12.5 3.125V4.375C12.5 4.54076 12.4342 4.69973 12.3169 4.81694C12.1997 4.93415 12.0408 5 11.875 5H10.625C10.4592 5 10.3003 4.93415 10.1831 4.81694C10.0658 4.69973 10 4.54076 10 4.375V3.125C10 2.95924 10.0658 2.80027 10.1831 2.68306C10.3003 2.56585 10.4592 2.5 10.625 2.5ZM2.5 6.875C2.5 6.70924 2.56585 6.55027 2.68306 6.43306C2.80027 6.31585 2.95924 6.25 3.125 6.25H4.375C4.54076 6.25 4.69973 6.31585 4.81694 6.43306C4.93415 6.55027 5 6.70924 5 6.875V8.125C5 8.29076 4.93415 8.44973 4.81694 8.56694C4.69973 8.68415 4.54076 8.75 4.375 8.75H3.125C2.95924 8.75 2.80027 8.68415 2.68306 8.56694C2.56585 8.44973 2.5 8.29076 2.5 8.125V6.875ZM6.875 6.25H8.125C8.29076 6.25 8.44973 6.31585 8.56694 6.43306C8.68415 6.55027 8.75 6.70924 8.75 6.875V8.125C8.75 8.29076 8.68415 8.44973 8.56694 8.56694C8.44973 8.68415 8.29076 8.75 8.125 8.75H6.875C6.70924 8.75 6.55027 8.68415 6.43306 8.56694C6.31585 8.44973 6.25 8.29076 6.25 8.125V6.875C6.25 6.70924 6.31585 6.55027 6.43306 6.43306C6.55027 6.31585 6.70924 6.25 6.875 6.25ZM10 6.875C10 6.70924 10.0658 6.55027 10.1831 6.43306C10.3003 6.31585 10.4592 6.25 10.625 6.25H11.875C12.0408 6.25 12.1997 6.31585 12.3169 6.43306C12.4342 6.55027 12.5 6.70924 12.5 6.875V8.125C12.5 8.29076 12.4342 8.44973 12.3169 8.56694C12.1997 8.68415 12.0408 8.75 11.875 8.75H10.625C10.4592 8.75 10.3003 8.68415 10.1831 8.56694C10.0658 8.44973 10 8.29076 10 8.125V6.875ZM3.125 10H4.375C4.54076 10 4.69973 10.0658 4.81694 10.1831C4.93415 10.3003 5 10.4592 5 10.625V11.875C5 12.0408 4.93415 12.1997 4.81694 12.3169C4.69973 12.4342 4.54076 12.5 4.375 12.5H3.125C2.95924 12.5 2.80027 12.4342 2.68306 12.3169C2.56585 12.1997 2.5 12.0408 2.5 11.875V10.625C2.5 10.4592 2.56585 10.3003 2.68306 10.1831C2.80027 10.0658 2.95924 10 3.125 10ZM6.25 10.625C6.25 10.4592 6.31585 10.3003 6.43306 10.1831C6.55027 10.0658 6.70924 10 6.875 10H8.125C8.29076 10 8.44973 10.0658 8.56694 10.1831C8.68415 10.3003 8.75 10.4592 8.75 10.625V11.875C8.75 12.0408 8.68415 12.1997 8.56694 12.3169C8.44973 12.4342 8.29076 12.5 8.125 12.5H6.875C6.70924 12.5 6.55027 12.4342 6.43306 12.3169C6.31585 12.1997 6.25 12.0408 6.25 11.875V10.625ZM10.625 10H11.875C12.0408 10 12.1997 10.0658 12.3169 10.1831C12.4342 10.3003 12.5 10.4592 12.5 10.625V11.875C12.5 12.0408 12.4342 12.1997 12.3169 12.3169C12.1997 12.4342 12.0408 12.5 11.875 12.5H10.625C10.4592 12.5 10.3003 12.4342 10.1831 12.3169C10.0658 12.1997 10 12.0408 10 11.875V10.625C10 10.4592 10.0658 10.3003 10.1831 10.1831C10.3003 10.0658 10.4592 10 10.625 10Z" fill="#212121"/>
</svg>
