<svg width="26" height="26" viewBox="0 0 26 26" fill="none" xmlns="http://www.w3.org/2000/svg">
<path d="M2.88889 22.7222H4.94722L19.0667 9.14583L17.0083 7.16667L2.88889 20.7431V22.7222ZM0 25.5V19.5972L19.0667 1.29861C19.3555 1.04398 19.6748 0.847222 20.0243 0.708333C20.3739 0.569445 20.7408 0.5 21.125 0.5C21.5092 0.5 21.8824 0.569445 22.2444 0.708333C22.6065 0.847222 22.9195 1.05556 23.1833 1.33333L25.1694 3.27778C25.4583 3.53241 25.6692 3.83333 25.8021 4.18056C25.935 4.52778 26.001 4.875 26 5.22222C26 5.59259 25.934 5.94583 25.8021 6.28194C25.6702 6.61806 25.4593 6.92454 25.1694 7.20139L6.13889 25.5H0ZM18.0194 8.17361L17.0083 7.16667L19.0667 9.14583L18.0194 8.17361Z" fill="black"/>
</svg>
