<svg width="16" height="16" viewBox="0 0 16 16" fill="none" xmlns="http://www.w3.org/2000/svg">
<path d="M14.9963 7.11029C14.7823 5.57089 14.0682 4.14454 12.9639 3.05094C11.8595 1.95734 10.4263 1.25716 8.88485 1.05827C7.34344 0.859377 5.77939 1.1728 4.43363 1.95026C3.08787 2.72772 2.03507 3.92609 1.43738 5.36076M1 1.8617V5.36076H4.49906M1 8.85982C1.21393 10.3992 1.92807 11.8256 3.0324 12.9192C4.13673 14.0128 5.56999 14.713 7.1114 14.9118C8.65282 15.1107 10.2169 14.7973 11.5626 14.0199C12.9084 13.2424 13.9612 12.044 14.5589 10.6094M14.9963 14.1084V10.6094H11.4972" stroke="black" stroke-width="2" stroke-linecap="round" stroke-linejoin="round"/>
</svg>
